<svg xmlns="http://www.w3.org/2000/svg" viewBox="0 0 900 1100"><defs><linearGradient id="g" x1="0" y1="0" x2="1" y2="1"><stop stop-color="#263842"/><stop offset="1" stop-color="#8d9694"/></linearGradient></defs><rect width="900" height="1100" fill="url(#g)"/><rect x="70" y="100" width="760" height="760" fill="#cfc9bb"/><path d="M120 740h660M120 500h660M145 840V290M755 840V290" fill="none" stroke="#18242a" stroke-width="20"/><g stroke="#27353b" stroke-width="9"><path d="M210 840V290M285 840V290M360 840V290M435 840V290M510 840V290M585 840V290M660 840V290"/></g><circle cx="300" cy="870" r="48" fill="#101820"/><path d="M220 1050c8-108 40-140 80-140s72 32 80 140" fill="#ef7d2c"/><circle cx="605" cy="865" r="48" fill="#101820"/><path d="M525 1050c8-108 40-140 80-140s72 32 80 140" fill="#dde0dc"/><path d="M320 720 590 570" stroke="#ef7d2c" stroke-width="10" stroke-dasharray="18 12"/><text x="55" y="70" fill="#fff" font-family="Arial" font-size="21" letter-spacing="5">PLACEHOLDER · FIELD COORDINATION</text></svg>
